# xmcd
#
# Track frame offsets:
#	150
#	13350
#	24810
#	39295
#	51845
#	67117
#	79792
#	95892
#	109872
#	127900
#	139060
#	160207
#	172255
#	184652
#	199210
#	212672
#	226625
#	238015
#	252370
#	266282
#
# Disc length: 3737 seconds
#
# Revision: 0
# Processed by: cddbd v1.5.1PL2 Copyright (c) Steve Scherf et al.
# Submitted via: dBpowerAMP V4.0
#
DISCID=150e9714
DTITLE=Louis Armstrong - Greatest Hits
DYEAR=1900
DGENRE=Blues
TTITLE0=You won't be satisfied
TTITLE1=Gone fishin'
TTITLE2=Can anyone explain
TTITLE3=Darling nellie gray
TTITLE4=Rockin' chair
TTITLE5=WPA
TTITLE6=Stars fell on alabama
TTITLE7=You rascal you
TTITLE8=Love is here to stay
TTITLE9=Onkel satchmo's lullaby
TTITLE10=Jeepers Creepers
TTITLE11=Alexander's ragtime band
TTITLE12=When the saints go marching in
TTITLE13=I'm in the mood for love
TTITLE14=I double dare you
TTITLE15=You are my lucky star
TTITLE16=Love walked in
TTITLE17=Cheetos Kat
TTITLE18=Jennifer Fewless
TTITLE19=Jack Daniels
EXTD=Clifford Dog
EXTT0=
EXTT1=
EXTT2=
EXTT3=
EXTT4=
EXTT5=
EXTT6=
EXTT7=
EXTT8=
EXTT9=
EXTT10=
EXTT11=
EXTT12=
EXTT13=
EXTT14=
EXTT15=
EXTT16=
EXTT17=
EXTT18=
EXTT19=
PLAYORDER=
